<svg xmlns="http://www.w3.org/2000/svg" viewBox="0 0 64 64" width="64" height="64">
  <!-- Ball body -->
  <circle cx="32" cy="32" r="30" fill="#f8fafc" stroke="#0f172a" stroke-width="3"/>
  <!-- Seam left arc -->
  <path d="M22 8 C10 20, 10 44, 22 56" fill="none" stroke="#dc2626" stroke-width="2.5" stroke-linecap="round"/>
  <!-- Seam right arc -->
  <path d="M42 8 C54 20, 54 44, 42 56" fill="none" stroke="#dc2626" stroke-width="2.5" stroke-linecap="round"/>
  <!-- Stitch marks left -->
  <line x1="20" y1="14" x2="16" y2="17" stroke="#dc2626" stroke-width="1.5" stroke-linecap="round"/>
  <line x1="17" y1="20" x2="13" y2="22" stroke="#dc2626" stroke-width="1.5" stroke-linecap="round"/>
  <line x1="15" y1="26" x2="11" y2="27" stroke="#dc2626" stroke-width="1.5" stroke-linecap="round"/>
  <line x1="14" y1="32" x2="10" y2="32" stroke="#dc2626" stroke-width="1.5" stroke-linecap="round"/>
  <line x1="15" y1="38" x2="11" y2="37" stroke="#dc2626" stroke-width="1.5" stroke-linecap="round"/>
  <line x1="17" y1="44" x2="13" y2="42" stroke="#dc2626" stroke-width="1.5" stroke-linecap="round"/>
  <line x1="20" y1="50" x2="16" y2="47" stroke="#dc2626" stroke-width="1.5" stroke-linecap="round"/>
  <!-- Stitch marks right -->
  <line x1="44" y1="14" x2="48" y2="17" stroke="#dc2626" stroke-width="1.5" stroke-linecap="round"/>
  <line x1="47" y1="20" x2="51" y2="22" stroke="#dc2626" stroke-width="1.5" stroke-linecap="round"/>
  <line x1="49" y1="26" x2="53" y2="27" stroke="#dc2626" stroke-width="1.5" stroke-linecap="round"/>
  <line x1="50" y1="32" x2="54" y2="32" stroke="#dc2626" stroke-width="1.5" stroke-linecap="round"/>
  <line x1="49" y1="38" x2="53" y2="37" stroke="#dc2626" stroke-width="1.5" stroke-linecap="round"/>
  <line x1="47" y1="44" x2="51" y2="42" stroke="#dc2626" stroke-width="1.5" stroke-linecap="round"/>
  <line x1="44" y1="50" x2="48" y2="47" stroke="#dc2626" stroke-width="1.5" stroke-linecap="round"/>
</svg>
